
        <svg xmlns="http://www.w3.org/2000/svg" xmlns:xlink="http://www.w3.org/1999/xlink" version="1.1" width="3214.285714285714" 
        height="3144.7811169009633" viewBox="0 0 3214.285714285714 3144.7811169009633">
			
			<g transform="scale(10.714285714285714) translate(10, 10)">
				<defs id="SvgjsDefs15896"></defs><g id="SvgjsG15897" featureKey="rootContainer" transform="matrix(5.532503391093221,0,0,5.532503391093221,0,-0.6779628423918762)" fill="#ff00e1"><path xmlns="http://www.w3.org/2000/svg" d="M25.3 49.56A24.82 24.82 0 0 1 .65 27.31h.44a24.34 24.34 0 0 0 48.43 0h.44A24.82 24.82 0 0 1 25.3 49.56zM1.07 22.31h-.4a24.77 24.77 0 0 1 49.27 0h-.4a24.36 24.36 0 0 0-48.47 0z"></path><circle xmlns="http://www.w3.org/2000/svg" cx=".71" cy="24.76" r=".71"></circle><circle xmlns="http://www.w3.org/2000/svg" cx="49.9" cy="24.76" r=".71"></circle></g><g id="SvgjsG15898" featureKey="symbolFeature-0" transform="matrix(1.6745716587653021,0,0,1.6745716587653021,56.609894409819674,23.361486132757477)" fill="#ff00e1"><path xmlns="http://www.w3.org/2000/svg" fill-rule="evenodd" clip-rule="evenodd" d="M64.4,51.543c-5.143-4.114-10.286,0-10.286,0c-4.114,3.086-9.257,0-9.257,0  c-5.143-4.114-10.286,0-10.286,0c-6.171,4.115-9.257-1.028-9.257-1.028c0-11.314,9.257-11.314,9.257-11.314  c0-2.921,1.359-4.814,2.969-6.047c1.086,1.775,3.026,2.972,5.26,2.972c3.415,0,6.182-2.768,6.182-6.182  c0-1.801-0.782-3.407-2.01-4.537C47.81,25.034,48.807,24.8,50,24.8c6.172,0,7.2,6.172,7.2,6.172c7.2,0,8.229,8.229,8.229,8.229  s9.257,0,9.257,11.314C70.571,55.658,64.4,51.543,64.4,51.543z M42.8,34.064c-2.276,0-4.121-1.846-4.121-4.121  c0-0.729,0.205-1.403,0.537-1.997c-1.754-1.287-4.307-3.807-3.616-7.261h2.057c0,0-1.586,3.98,2.235,6.338  c0.745-0.742,1.773-1.202,2.908-1.202c2.276,0,4.122,1.846,4.122,4.122C46.921,32.219,45.076,34.064,42.8,34.064z M34.571,53.601  c0,0,5.143-4.114,10.286,0c0,0,5.143,3.085,9.257,0c0,0,5.144-4.114,10.286,0c0,0,6.171,3.085,10.285-1.028l-9.257,24.686  c0,0-0.921,2.057-2.058,2.057H36.628c-1.136,0-2.057-2.057-2.057-2.057l-9.257-24.686C25.314,52.572,28.4,57.715,34.571,53.601z   M58.289,75.966c0,0,9.955-13.306,3.993-14.902C56.321,59.466,58.289,75.966,58.289,75.966z M50,76.229c0,0,6.172-15.428,0-15.428  C43.829,60.801,50,76.229,50,76.229z M41.711,75.966c0,0,1.968-16.5-3.993-14.902C31.756,62.66,41.711,75.966,41.711,75.966z"></path></g><g id="SvgjsG15899" featureKey="nameFeature-0" transform="matrix(0.6880283425347254,0,0,0.6880283425347254,38.713666108095076,167.55101016893207)" fill="#ff00e1"><path d="M11.24 23.12 l5.8 10.04 l0.4 -19.68 c0.12 -0.76 1.12 -0.8 1.72 -0.8 c0.4 0 0.8 0.08 1.2 0.2 c0.36 0.12 0.52 0.32 0.48 0.6 l-0.24 12.72 c-0.12 4.2 -0.16 8.44 -0.28 12.76 c0 0.64 -1.04 0.8 -1.52 0.8 c-1 0 -1.6 -0.2 -1.8 -0.6 l-5.8 -10.08 l-5.84 -10.04 c-0.12 3.36 -0.12 6.6 -0.08 9.84 c0 3.24 0.04 6.48 0.16 9.8 c0.04 0.28 -0.12 0.52 -0.48 0.64 c-0.4 0.12 -0.8 0.2 -1.2 0.2 c-0.6 0 -1.6 -0.08 -1.72 -0.84 c-0.12 -4.28 -0.2 -8.48 -0.16 -12.68 c0 -4.2 0.08 -8.4 0.2 -12.72 c0.12 -0.76 0.96 -0.8 1.56 -0.8 c0.92 0 1.52 0.2 1.8 0.6 z M40.208 16.12 c0.48 1.32 0.8 2.68 0.96 4.04 c0.44 3.84 0.32 7.64 -0.36 11.36 c-0.28 1.48 -0.6 2.92 -1.04 4.32 c-0.44 1.48 -1.4 2.56 -2.88 3.16 c-1.44 0.6 -2.88 0.92 -4.32 0.92 c-4.48 0 -6.64 -2.48 -7.24 -6.8 c-0.2 -1.64 -0.32 -3.32 -0.28 -5.04 c0 -5.92 1 -15.68 8.8 -15.68 c2.56 0 5.36 1.16 6.36 3.72 z M38.008 24.8 c0 -2.56 -0.12 -10.36 -4 -10.36 c-1.88 0 -3.8 1.6 -4.48 3.32 c-0.52 1.2 -0.8 2.44 -0.92 3.72 c-0.16 1.24 -0.2 2.56 -0.16 4.04 l0.08 3.64 c0 2.64 0.16 9.16 4 9.16 c0.44 0 0.84 -0.04 1.16 -0.16 c1.44 -0.36 2.36 -1.16 2.76 -2.48 c1.04 -3.64 1.56 -7.28 1.56 -10.88 z M59.336000000000006 21.64 l0.12 4.04 c0.04 1.8 0.04 3.68 0 5.6 c-0.04 1.96 -0.08 3.76 -0.2 5.48 c-0.12 1.8 -0.32 3.08 -0.52 3.76 c-0.04 0.2 -0.2 0.36 -0.56 0.48 c-0.36 0.08 -0.72 0.12 -1.08 0.12 c-0.4 0 -0.8 -0.08 -1.2 -0.2 c-0.36 -0.12 -0.56 -0.32 -0.52 -0.6 c0.28 -2.72 0.44 -5.28 0.56 -8 c-0.4 -0.16 -0.96 -0.24 -1.64 -0.24 c-0.44 0 -0.8 0 -1 0.04 c-0.24 0.04 -0.56 0.04 -0.92 0.04 l-0.12 0 l-3.72 -0.12 c0 2.4 0.24 4.8 0.84 7.16 c0.04 0.28 -0.08 0.44 -0.44 0.56 c-0.4 0.12 -0.8 0.2 -1.24 0.2 c-0.48 0 -1.6 -0.16 -1.72 -0.76 c-0.76 -2.96 -1.08 -5.92 -0.92 -8.92 c0.2 -4.32 0.64 -11.28 3.24 -14.96 c1.4 -1.92 3.2 -2.88 5.48 -2.88 c5.24 0 5.44 5.24 5.56 9.2 z M54.57600000000001 29.92 c0.52 0 1 0.04 1.44 0.08 c0.04 -0.76 0.04 -1.4 0.04 -2.16 l0 -2.16 l-0.08 -3.56 c-0.12 -2.08 -0.24 -4.04 -0.6 -6.08 c-0.2 -1.08 -0.68 -1.72 -1.48 -1.92 c-0.04 -0.04 -0.16 -0.04 -0.36 -0.04 c-0.4 0 -0.8 0.2 -1.24 0.56 c-0.4 0.4 -0.76 0.88 -1.04 1.4 c-2.16 3.56 -2.48 9.56 -2.68 13.72 c2.04 0.12 3.96 0.16 6 0.16 z M74.58400000000002 38.08 c0.76 0 1.12 0.36 1.12 1.12 s-0.36 1.16 -1.12 1.16 c-2.2 0.16 -4.36 0.2 -6.56 0.2 c-1.32 0 -2.36 -0.04 -3.12 -0.16 c-0.88 -0.12 -1.32 -0.32 -1.28 -0.6 c0.32 -4.48 0.48 -8.84 0.52 -13.28 c0 -4.4 -0.08 -8.84 -0.24 -13.32 c0 -0.68 1.2 -0.8 1.68 -0.8 s1.72 0.12 1.72 0.8 c0.12 4.2 0.2 8.28 0.16 12.44 c-0.04 4.12 -0.16 8.28 -0.36 12.48 l5.52 0 c0.64 0 1.28 0 1.96 -0.04 z M92.95200000000001 15.760000000000002 c0.6 1.72 0.88 3.44 0.76 5.08 c0 0.76 -1.16 0.84 -1.68 0.84 c-0.44 0 -0.84 -0.08 -1.2 -0.24 c-0.36 -0.12 -0.56 -0.32 -0.52 -0.6 c0.04 -0.44 0 -1.04 -0.04 -1.8 c-0.16 -1.4 -0.44 -2.72 -1.2 -3.96 c-0.36 -0.52 -0.76 -0.76 -1.24 -0.76 c-2.88 0 -5.52 8.28 -6.16 11.2 c-0.2 0.84 -0.32 1.72 -0.44 2.56 l5.56 0 c0.36 0 0.64 0.12 0.84 0.36 c0.16 0.24 0.24 0.48 0.24 0.76 s-0.08 0.56 -0.24 0.8 c-0.2 0.24 -0.48 0.36 -0.84 0.36 l-5.64 0 c0.04 0.92 0.16 1.84 0.36 2.76 c0.52 1.88 1.48 3.36 2.88 4.4 c0.76 0.52 1.36 0.8 1.8 0.8 c0.76 0 1.36 -0.44 1.76 -1.36 c0.36 -0.92 0.64 -1.64 0.76 -2.24 c0.12 -0.76 1.12 -0.8 1.72 -0.8 c0.44 0 0.84 0.08 1.24 0.2 c0.36 0.16 0.48 0.36 0.44 0.6 c-0.76 3.08 -2.28 5.36 -5.68 5.36 c-1.76 0 -3.4 -0.56 -4.96 -1.72 s-2.6 -2.6 -3.12 -4.28 c-0.56 -1.76 -0.76 -3.64 -0.6 -5.6 c0.32 -4.48 2.52 -11.32 6.08 -14.44 c1.08 -0.96 2.44 -1.44 4 -1.44 c2.24 0 4.28 0.92 5.12 3.16 z M104.76000000000002 19.04 l3.84 -5.56 c0.24 -0.36 0.56 -0.52 0.96 -0.52 c0.44 0 0.76 0.16 1.04 0.48 c0.28 0.36 0.24 0.76 -0.04 1.2 c-3 4.28 -5.92 8.48 -8.84 12.8 c4.64 2.56 7.76 6.8 8.72 11.96 c0.08 0.44 -0.04 0.8 -0.32 1.08 c-0.28 0.24 -0.56 0.36 -0.92 0.36 c-0.52 0 -0.84 -0.28 -0.96 -0.84 c-0.92 -4.68 -3.36 -8.12 -7.36 -10.4 c-0.12 3.2 -0.12 6.28 -0.4 9.44 c-0.12 0.68 -1.12 0.8 -1.72 0.8 c-0.36 0 -0.76 -0.08 -1.16 -0.2 c-0.36 -0.12 -0.56 -0.32 -0.52 -0.6 c0.52 -8.32 0.6 -16.92 0.28 -25.84 c-0.04 -0.28 0.16 -0.48 0.52 -0.6 c0.4 -0.12 0.8 -0.2 1.16 -0.2 c0.6 0 1.6 0.12 1.72 0.8 l0.16 5.68 c0.04 1.88 0.04 3.8 0 5.72 z M142.73600000000002 21.08 c0.12 1.52 -0.08 2.88 -0.64 4.04 c-0.84 1.88 -2.16 3.4 -3.96 4.48 c-1.76 1.08 -3.64 1.68 -5.68 1.88 l-0.28 0 c-0.12 2.72 -0.16 5.32 -0.44 8 c-0.12 0.68 -1.12 0.8 -1.72 0.8 c-0.36 0 -0.76 -0.08 -1.16 -0.2 c-0.36 -0.12 -0.56 -0.32 -0.52 -0.6 c0.28 -4.44 0.52 -8.76 0.64 -13.08 s0.2 -8.68 0.16 -13.04 c0 -0.76 1.16 -0.84 1.68 -0.84 s1.72 0.08 1.72 0.84 c1.16 0 2.32 0.12 3.56 0.32 c3.68 0.76 6.36 3.6 6.64 7.4 z M132.256 29.880000000000003 c2.04 -0.36 3.76 -1.32 5.08 -2.8 c1.36 -1.48 2.04 -3.28 2.04 -5.4 c0 -1.32 -0.4 -2.64 -1.16 -3.92 c-0.76 -1.32 -1.84 -2.16 -3.2 -2.52 c-0.64 -0.16 -1.48 -0.28 -2.48 -0.32 c0 5 0 9.96 -0.28 14.96 z M159.584 21.64 l0.12 4.04 c0.04 1.8 0.04 3.68 0 5.6 c-0.04 1.96 -0.08 3.76 -0.2 5.48 c-0.12 1.8 -0.32 3.08 -0.52 3.76 c-0.04 0.2 -0.2 0.36 -0.56 0.48 c-0.36 0.08 -0.72 0.12 -1.08 0.12 c-0.4 0 -0.8 -0.08 -1.2 -0.2 c-0.36 -0.12 -0.56 -0.32 -0.52 -0.6 c0.28 -2.72 0.44 -5.28 0.56 -8 c-0.4 -0.16 -0.96 -0.24 -1.64 -0.24 c-0.44 0 -0.8 0 -1 0.04 c-0.24 0.04 -0.56 0.04 -0.92 0.04 l-0.12 0 l-3.72 -0.12 c0 2.4 0.24 4.8 0.84 7.16 c0.04 0.28 -0.08 0.44 -0.44 0.56 c-0.4 0.12 -0.8 0.2 -1.24 0.2 c-0.48 0 -1.6 -0.16 -1.72 -0.76 c-0.76 -2.96 -1.08 -5.92 -0.92 -8.92 c0.2 -4.32 0.64 -11.28 3.24 -14.96 c1.4 -1.92 3.2 -2.88 5.48 -2.88 c5.24 0 5.44 5.24 5.56 9.2 z M154.824 29.92 c0.52 0 1 0.04 1.44 0.08 c0.04 -0.76 0.04 -1.4 0.04 -2.16 l0 -2.16 l-0.08 -3.56 c-0.12 -2.08 -0.24 -4.04 -0.6 -6.08 c-0.2 -1.08 -0.68 -1.72 -1.48 -1.92 c-0.04 -0.04 -0.16 -0.04 -0.36 -0.04 c-0.4 0 -0.8 0.2 -1.24 0.56 c-0.4 0.4 -0.76 0.88 -1.04 1.4 c-2.16 3.56 -2.48 9.56 -2.68 13.72 c2.04 0.12 3.96 0.16 6 0.16 z M183.632 13.36 c0.2 -0.4 0.48 -0.6 0.84 -0.6 c0.4 0 0.72 0.16 1 0.52 s0.32 0.76 0.12 1.2 c-0.84 1.88 -2.4 2.6 -4.44 2.6 c-1.32 0 -2.68 -0.24 -4.04 -0.68 c-0.2 -0.04 -0.36 -0.12 -0.52 -0.16 l-0.6 -0.12 c0.04 8.28 -0.2 16.16 -0.76 23.72 c-0.12 0.76 -1.08 0.8 -1.68 0.8 c-0.4 0 -0.8 -0.08 -1.2 -0.2 c-0.36 -0.12 -0.56 -0.32 -0.52 -0.6 c0.28 -4.16 0.52 -8.16 0.64 -12.28 c0.12 -4.04 0.16 -8.16 0.12 -12.28 l-1.12 -0.16 l-1.2 -0.16 c-0.56 -0.08 -1.16 -0.12 -1.76 -0.12 c-0.68 0 -1.44 0.12 -2.28 0.32 s-1.36 0.68 -1.56 1.48 c-0.2 0.52 -0.56 0.8 -1.08 0.8 c-0.36 0 -0.68 -0.12 -0.92 -0.4 c-0.28 -0.2 -0.32 -0.56 -0.2 -1 c0.44 -1.4 1.28 -2.32 2.48 -2.76 c1.24 -0.44 2.48 -0.68 3.8 -0.68 c2.88 0 5.56 0.68 8.28 1.44 l1.92 0.52 c0.72 0.2 1.4 0.32 2.08 0.32 c1.28 0 2.16 -0.52 2.6 -1.52 z M188.44 12.920000000000002 l5.48 0.12 c0.36 0 0.56 0.2 0.56 0.56 s-0.2 0.56 -0.56 0.56 l-0.84 0 l-0.36 12.36 l-0.4 12.36 l0.64 0 c0.36 0 0.56 0.16 0.56 0.52 s-0.2 0.56 -0.56 0.6 c-0.2 0.04 -0.48 0.04 -0.88 0.04 l-0.88 0 c-1 0 -2 -0.04 -2.96 -0.12 c-0.36 -0.04 -0.56 -0.28 -0.56 -0.64 c0 -0.32 0.2 -0.48 0.56 -0.48 s0.56 0 0.68 0.04 l0.4 -12.36 l0.36 -12.36 l-1.24 -0.08 c-0.36 0 -0.56 -0.2 -0.56 -0.6 c0 -0.36 0.2 -0.52 0.56 -0.52 z M204.448 12.84 l0.36 0.04 c1.64 0.04 2.92 0.8 3.8 2.24 s1.44 2.88 1.64 4.32 c0.16 1.04 0.16 2.04 0.04 3 c-0.12 0.68 -1.12 0.84 -1.72 0.84 c-0.44 0 -0.84 -0.08 -1.2 -0.24 c-0.36 -0.12 -0.52 -0.32 -0.48 -0.6 c0.12 -0.8 0.12 -1.56 0 -2.28 c-0.12 -0.68 -0.28 -1.4 -0.56 -2.24 c-0.12 -0.44 -0.28 -1 -0.56 -1.8 c-0.28 -0.76 -0.64 -1.24 -1.04 -1.44 c-0.28 -0.04 -0.4 -0.08 -0.44 -0.08 c-1.68 0 -3.4 4.48 -3.6 6.12 c-0.28 1.64 -0.12 2.88 0.56 3.8 c1.24 1.88 3.88 3.04 5.96 3.8 c1.08 0.4 1.84 1.12 2.28 2.16 c0.36 1 0.56 2.08 0.52 3.24 c-0.04 1.88 -0.52 3.48 -1.36 4.88 c-0.84 1.36 -2.32 2.04 -4.4 2.04 c-2.16 0 -3.84 -0.84 -5.08 -2.52 c-1.2 -1.68 -1.92 -3.48 -2.12 -5.44 c-0.04 -0.28 0.12 -0.52 0.48 -0.64 c0.4 -0.12 0.8 -0.2 1.2 -0.2 c0.6 0 1.6 0.08 1.72 0.84 c0.2 1.48 1.56 6.2 3.6 6.2 c0.84 0 1.48 -0.52 1.84 -1.56 c0.4 -1.08 0.64 -1.92 0.68 -2.56 c0.04 -0.72 0.04 -1.44 0 -2.16 c-0.16 -1.32 -0.56 -2.6 -1.88 -3.2 c-1.76 -0.76 -3.48 -1.48 -5.04 -2.6 c-1.88 -1.32 -2.72 -3.08 -2.48 -5.2 c0.52 -3.92 2.68 -8.76 7.28 -8.76 z M221.336 12.84 l0.36 0.04 c1.64 0.04 2.92 0.8 3.8 2.24 s1.44 2.88 1.64 4.32 c0.16 1.04 0.16 2.04 0.04 3 c-0.12 0.68 -1.12 0.84 -1.72 0.84 c-0.44 0 -0.84 -0.08 -1.2 -0.24 c-0.36 -0.12 -0.52 -0.32 -0.48 -0.6 c0.12 -0.8 0.12 -1.56 0 -2.28 c-0.12 -0.68 -0.28 -1.4 -0.56 -2.24 c-0.12 -0.44 -0.28 -1 -0.56 -1.8 c-0.28 -0.76 -0.64 -1.24 -1.04 -1.44 c-0.28 -0.04 -0.4 -0.08 -0.44 -0.08 c-1.68 0 -3.4 4.48 -3.6 6.12 c-0.28 1.64 -0.12 2.88 0.56 3.8 c1.24 1.88 3.88 3.04 5.96 3.8 c1.08 0.4 1.84 1.12 2.28 2.16 c0.36 1 0.56 2.08 0.52 3.24 c-0.04 1.88 -0.52 3.48 -1.36 4.88 c-0.84 1.36 -2.32 2.04 -4.4 2.04 c-2.16 0 -3.84 -0.84 -5.08 -2.52 c-1.2 -1.68 -1.92 -3.48 -2.12 -5.44 c-0.04 -0.28 0.12 -0.52 0.48 -0.64 c0.4 -0.12 0.8 -0.2 1.2 -0.2 c0.6 0 1.6 0.08 1.72 0.84 c0.2 1.48 1.56 6.2 3.6 6.2 c0.84 0 1.48 -0.52 1.84 -1.56 c0.4 -1.08 0.64 -1.92 0.68 -2.56 c0.04 -0.72 0.04 -1.44 0 -2.16 c-0.16 -1.32 -0.56 -2.6 -1.88 -3.2 c-1.76 -0.76 -3.48 -1.48 -5.04 -2.6 c-1.88 -1.32 -2.72 -3.08 -2.48 -5.2 c0.52 -3.92 2.68 -8.76 7.28 -8.76 z M245.98400000000004 15.760000000000002 c0.6 1.72 0.88 3.44 0.76 5.08 c0 0.76 -1.16 0.84 -1.68 0.84 c-0.44 0 -0.84 -0.08 -1.2 -0.24 c-0.36 -0.12 -0.56 -0.32 -0.52 -0.6 c0.04 -0.44 0 -1.04 -0.04 -1.8 c-0.16 -1.4 -0.44 -2.72 -1.2 -3.96 c-0.36 -0.52 -0.76 -0.76 -1.24 -0.76 c-2.88 0 -5.52 8.28 -6.16 11.2 c-0.2 0.84 -0.32 1.72 -0.44 2.56 l5.56 0 c0.36 0 0.64 0.12 0.84 0.36 c0.16 0.24 0.24 0.48 0.24 0.76 s-0.08 0.56 -0.24 0.8 c-0.2 0.24 -0.48 0.36 -0.84 0.36 l-5.64 0 c0.04 0.92 0.16 1.84 0.36 2.76 c0.52 1.88 1.48 3.36 2.88 4.4 c0.76 0.52 1.36 0.8 1.8 0.8 c0.76 0 1.36 -0.44 1.76 -1.36 c0.36 -0.92 0.64 -1.64 0.76 -2.24 c0.12 -0.76 1.12 -0.8 1.72 -0.8 c0.44 0 0.84 0.08 1.24 0.2 c0.36 0.16 0.48 0.36 0.44 0.6 c-0.76 3.08 -2.28 5.36 -5.68 5.36 c-1.76 0 -3.4 -0.56 -4.96 -1.72 s-2.6 -2.6 -3.12 -4.28 c-0.56 -1.76 -0.76 -3.64 -0.6 -5.6 c0.32 -4.48 2.52 -11.32 6.08 -14.44 c1.08 -0.96 2.44 -1.44 4 -1.44 c2.24 0 4.28 0.92 5.12 3.16 z M264.632 20.92 c0.2 2.68 -0.52 4.84 -2.24 6.56 s-3.76 2.92 -6.12 3.52 c2.04 2.68 4.44 5.08 7.12 7.12 c0.52 0.36 0.64 0.84 0.44 1.36 c-0.2 0.56 -0.52 0.84 -0.96 0.84 c-0.2 0 -0.4 -0.08 -0.6 -0.24 c-3.2 -2.4 -5.96 -5.2 -8.32 -8.44 c-0.04 1.32 -0.08 2.6 -0.2 3.88 c-0.12 1.32 -0.12 2.6 -0.24 3.92 c-0.04 0.28 -0.2 0.48 -0.56 0.64 c-0.32 0.12 -0.72 0.16 -1.16 0.16 c-0.36 0 -0.76 -0.08 -1.16 -0.2 c-0.36 -0.12 -0.56 -0.32 -0.52 -0.6 c0.28 -4.44 0.52 -8.8 0.64 -13.16 s0.2 -8.72 0.16 -13.2 c0 -0.68 1.2 -0.8 1.68 -0.8 s1.72 0.12 1.72 0.8 l0 0.04 c2.44 0 4.88 0.28 6.92 1.76 s3.2 3.52 3.4 6.04 z M254.67200000000003 29.64 c1.88 -0.44 3.44 -1.44 4.68 -2.92 s1.88 -3.24 1.88 -5.2 c0 -1.32 -0.4 -2.64 -1.16 -3.96 s-1.8 -2.2 -3.2 -2.56 c-0.84 -0.2 -1.72 -0.32 -2.56 -0.32 c0 5.08 0 10 -0.28 15.08 c0.24 -0.08 0.44 -0.12 0.64 -0.12 z M268 12.920000000000002 l5.48 0.12 c0.36 0 0.56 0.2 0.56 0.56 s-0.2 0.56 -0.56 0.56 l-0.84 0 l-0.36 12.36 l-0.4 12.36 l0.64 0 c0.36 0 0.56 0.16 0.56 0.52 s-0.2 0.56 -0.56 0.6 c-0.2 0.04 -0.48 0.04 -0.88 0.04 l-0.88 0 c-1 0 -2 -0.04 -2.96 -0.12 c-0.36 -0.04 -0.56 -0.28 -0.56 -0.64 c0 -0.32 0.2 -0.48 0.56 -0.48 s0.56 0 0.68 0.04 l0.4 -12.36 l0.36 -12.36 l-1.24 -0.08 c-0.36 0 -0.56 -0.2 -0.56 -0.6 c0 -0.36 0.2 -0.52 0.56 -0.52 z M291.768 15.760000000000002 c0.6 1.72 0.88 3.44 0.76 5.08 c0 0.76 -1.16 0.84 -1.68 0.84 c-0.44 0 -0.84 -0.08 -1.2 -0.24 c-0.36 -0.12 -0.56 -0.32 -0.52 -0.6 c0.04 -0.44 0 -1.04 -0.04 -1.8 c-0.16 -1.4 -0.44 -2.72 -1.2 -3.96 c-0.36 -0.52 -0.76 -0.76 -1.24 -0.76 c-2.88 0 -5.52 8.28 -6.16 11.2 c-0.2 0.84 -0.32 1.72 -0.44 2.56 l5.56 0 c0.36 0 0.64 0.12 0.84 0.36 c0.16 0.24 0.24 0.48 0.24 0.76 s-0.08 0.56 -0.24 0.8 c-0.2 0.24 -0.48 0.36 -0.84 0.36 l-5.64 0 c0.04 0.92 0.16 1.84 0.36 2.76 c0.52 1.88 1.48 3.36 2.88 4.4 c0.76 0.52 1.36 0.8 1.8 0.8 c0.76 0 1.36 -0.44 1.76 -1.36 c0.36 -0.92 0.64 -1.64 0.76 -2.24 c0.12 -0.76 1.12 -0.8 1.72 -0.8 c0.44 0 0.84 0.08 1.24 0.2 c0.36 0.16 0.48 0.36 0.44 0.6 c-0.76 3.08 -2.28 5.36 -5.68 5.36 c-1.76 0 -3.4 -0.56 -4.96 -1.72 s-2.6 -2.6 -3.12 -4.28 c-0.56 -1.76 -0.76 -3.64 -0.6 -5.6 c0.32 -4.48 2.52 -11.32 6.08 -14.44 c1.08 -0.96 2.44 -1.44 4 -1.44 c2.24 0 4.28 0.92 5.12 3.16 z"></path></g><g id="SvgjsG15900" featureKey="sloganFeature-0" transform="matrix(0.6819671175843319,0,0,0.6819671175843319,91.31820380897042,202.68563939230046)" fill="#ff00e1"><path d="M5.08 4.9 c-0.38 0.02 -0.76 0.08 -1.14 0.2 c-0.82 0.28 -1.56 0.84 -2.06 1.56 c-0.44 0.66 -0.62 1.44 -0.68 2.22 c-0.04 0.6 0.02 1.22 0.3 1.76 c0.3 0.58 0.82 1.08 1.26 1.56 c0.4 0.42 0.8 0.84 1.24 1.22 c0.4 0.38 0.86 0.68 1.26 1.08 c0.58 0.58 0.8 1.9 0.38 2.62 c-0.5 0.8 -1.68 0.92 -2.46 0.66 c-0.4 -0.14 -0.76 -0.44 -1.1 -0.68 c-0.2 -0.14 -0.44 -0.2 -0.58 0.04 c-0.08 0.12 -0.12 0.26 -0.16 0.38 c-0.14 0.5 -0.32 0.96 -0.34 1.5 c-0.02 0.62 1.16 0.8 1.6 0.9 c1.96 0.46 4.32 0.1 5.34 -1.84 c0.2 -0.4 0.34 -0.82 0.42 -1.26 c0.02 -0.16 0.04 -0.3 0.04 -0.46 c0.08 -1.28 -0.44 -2.36 -1.22 -3.32 c-0.84 -1.04 -1.9 -1.76 -2.88 -2.66 c-0.6 -0.56 -0.82 -1.44 -0.64 -2.24 c0.18 -0.86 1.16 -1.08 1.9 -0.86 c0.22 0.06 0.4 0.16 0.6 0.28 c0.12 0.06 0.24 0.14 0.4 0.14 c0.28 0.02 0.32 -0.2 0.38 -0.42 c0.14 -0.5 0.38 -0.9 0.48 -1.38 c0.1 -0.54 -0.34 -0.64 -0.78 -0.78 c-0.52 -0.14 -1.02 -0.24 -1.56 -0.22 z M19.838 14.84 c-0.06 -2.28 -0.04 -4.7 -0.02 -6.96 c0 -0.7 -0.04 -1.46 -0.04 -2.16 c0 -0.76 -0.3 -0.72 -0.7 -0.74 c-0.58 -0.02 -0.84 -0.02 -1.42 -0.02 c-0.38 -0.02 -0.54 0.08 -0.54 0.46 c0 1.96 -0.06 7.5 -0.04 8.3 s0.1 4.44 0.06 5.24 c-0.02 0.28 0 0.56 0.02 0.84 c0.02 0.1 0.08 0.2 0.24 0.2 c0.66 -0.04 1.28 -0.04 1.94 -0.06 c0.24 -0.02 0.44 -0.08 0.54 -0.34 c0.02 -0.14 -0.04 -3.8 -0.04 -4.76 z M37.07600000000001 5.460000000000001 c0.06 0.28 0.02 13.6 0.02 13.94 c0 0.6 -0.22 0.58 -0.62 0.58 c-0.6 0 -1.44 0.1 -1.62 -0.1 c-0.16 -0.14 -3.12 -7.28 -3.54 -8.18 c-0.04 -0.08 -0.14 -0.28 -0.22 -0.24 c-0.1 0.04 -0.06 0.18 -0.06 0.26 c-0.02 0.7 0.1 6.74 0.1 7.7 c0 0.48 -0.02 0.56 -0.42 0.56 l-1 0 c-0.26 0 -0.58 -0.02 -0.84 0.02 c-0.2 0 -0.3 -0.06 -0.32 -0.26 l0 -1.58 c0.04 -1.68 0 -11.64 0 -12.38 c0 -0.64 0.18 -0.76 0.82 -0.76 c0.44 -0.02 0.88 -0.02 1.32 -0.02 c0.14 0 0.22 0.02 0.3 0.2 c0.54 1.26 2.84 7.04 3.2 7.74 c0.06 0.14 0.28 0.7 0.4 0.76 l0.02 0 c0.08 -0.08 0.06 -0.48 0.06 -0.6 c0 -0.3 -0.16 -7.32 -0.16 -7.46 c0 -0.2 -0.06 -0.38 0.04 -0.52 c0.06 -0.08 0.32 -0.1 0.42 -0.12 c0.56 -0.04 1.22 0.02 1.78 0 c0.28 0 0.26 0.2 0.32 0.46 z M53.694 7.359999999999999 c0.02 -0.66 0 -1.2 0 -1.84 c0 -0.74 -1.34 -0.66 -1.82 -0.64 c-2.14 0.14 -4.18 1.5 -5.16 3.36 c-0.28 0.54 -0.48 1.1 -0.62 1.68 c-0.34 1.36 -0.36 2.8 -0.2 4.18 c0.14 1.3 0.48 2.6 1.28 3.64 c1.38 1.82 3.92 2.46 6.1 2.12 c0.1 -0.02 0.2 -0.04 0.28 -0.1 c0.06 -0.04 0.12 -0.12 0.12 -0.2 l0.06 -1.14 c0.02 -0.36 0 -0.34 0 -0.7 c0 -0.48 -1 -0.12 -1.62 -0.12 c-0.6 0 -1.24 -0.02 -1.78 -0.3 c-0.96 -0.54 -1.5 -1.62 -1.8 -2.64 c-0.34 -1.1 -0.42 -2.28 -0.22 -3.4 c0.24 -1.46 0.94 -3.14 2.48 -3.64 c0.88 -0.3 1.82 -0.2 2.7 -0.1 c0.12 0.02 0.2 -0.06 0.2 -0.16 z M62.43200000000001 15.9 l-0.02 0 c0 0.5 -0.02 1.02 0 1.54 c0.02 0.64 0.06 1.28 0.1 1.92 c0 0.22 0.06 0.28 0.26 0.32 c0.42 0.1 0.82 0.12 1.24 0.12 c1.08 -0.04 2.16 0.04 3.24 0 c0.44 -0.02 0.64 0.02 1.08 -0.06 c0.4 -0.08 0.54 -0.3 0.54 -0.9 c-0.04 -0.38 -0.02 -0.54 -0.02 -1 c0 -0.66 -0.46 -0.88 -0.86 -0.86 c-0.28 0.02 -1.62 -0.02 -2.16 -0.02 c-0.9 0.02 -0.76 0.14 -0.76 -0.8 c0 -0.76 0.02 -1.74 0.02 -2.52 c0 -0.42 0.04 -0.56 0.44 -0.56 l2.5 0 c0.4 0.06 0.68 -0.22 0.68 -0.64 s0.04 -0.44 0.04 -0.86 l-0.06 -0.6 c-0.04 -0.34 -0.16 -0.46 -0.5 -0.46 c-0.22 0 -0.44 0.02 -0.66 0.04 c-0.86 0.06 -1.26 -0.06 -2.1 0 c-0.28 0 -0.32 -0.04 -0.34 -0.3 c-0.08 -0.78 0 -1.64 0.08 -2.42 c0.02 -0.32 0.1 -0.38 0.4 -0.4 l2.82 -0.02 c0.38 -0.04 0.5 -0.02 0.48 -0.4 c-0.04 -0.58 0.02 -1.18 -0.04 -1.76 c-0.04 -0.32 -0.14 -0.38 -0.5 -0.38 c-0.6 0.02 -0.74 0.02 -1.34 0.06 c-0.6 0.02 -3 0.02 -3.58 0.02 c-0.84 0 -0.9 -0.06 -0.92 0.96 c-0.04 0.8 -0.02 1.62 -0.02 2.44 c0 1.4 -0.08 6.42 -0.04 7.54 z M90.44800000000001 8.08 c-0.02 0.72 -0.06 11.26 -0.02 11.64 c0.02 0.22 0.02 0.24 0.3 0.24 s1.54 0.02 2.24 0.02 c0.08 0 0.26 0 0.26 -0.28 c0 -1.94 -0.02 -13.68 0 -14.26 c0.02 -0.32 -0.06 -0.42 -0.36 -0.4 c-0.58 0 -1 -0.02 -1.58 0 c-0.14 0 -0.46 0.2 -0.58 0.32 c-0.54 0.42 -0.78 0.5 -1.34 0.96 c-0.12 0.12 -0.14 0.2 -0.14 0.42 c0.04 0.5 0.1 0.98 0.14 1.44 c0.06 0.44 0.18 0.5 0.54 0.2 c0.06 -0.06 0.32 -0.34 0.38 -0.38 c0.04 -0.02 0.1 -0.04 0.12 -0.02 s0.04 0.08 0.04 0.1 z M104.046 19.94 l2.06 0 c0.3 0 0.5 -0.18 0.64 -0.34 c0.52 -0.58 3.3 -4.96 3.3 -9.62 c0 -2.08 -1.34 -5.12 -4.16 -5.12 c-2.18 0 -3.98 1.86 -3.98 5.16 c0 1.14 0.62 4.2 3.52 4.2 c0.8 0 0.98 -0.32 1.28 -0.32 c0.24 0 -0.04 0.68 -0.16 0.9 c-0.36 0.98 -2.88 4.7 -2.92 4.78 c-0.2 0.42 0.18 0.36 0.42 0.36 z M104.286 9.78 c0 -1.16 0.18 -2.44 1.6 -2.44 s1.54 1.34 1.54 2.16 c0 0.9 0.02 2.42 -1.54 2.42 c-1.44 0 -1.6 -1.4 -1.6 -2.14 z M120.664 19.94 l2.06 0 c0.3 0 0.5 -0.18 0.64 -0.34 c0.52 -0.58 3.3 -4.96 3.3 -9.62 c0 -2.08 -1.34 -5.12 -4.16 -5.12 c-2.18 0 -3.98 1.86 -3.98 5.16 c0 1.14 0.62 4.2 3.52 4.2 c0.8 0 0.98 -0.32 1.28 -0.32 c0.24 0 -0.04 0.68 -0.16 0.9 c-0.36 0.98 -2.88 4.7 -2.92 4.78 c-0.2 0.42 0.18 0.36 0.42 0.36 z M120.904 9.78 c0 -1.16 0.18 -2.44 1.6 -2.44 s1.54 1.34 1.54 2.16 c0 0.9 0.02 2.42 -1.54 2.42 c-1.44 0 -1.6 -1.4 -1.6 -2.14 z M141.86200000000002 12.620000000000001 c0.02 -0.86 0 -5.1 0 -6.32 c0.02 -0.28 0 -0.56 -0.04 -0.84 c-0.02 -0.34 -0.08 -0.44 -0.44 -0.46 l-1.52 0 c-0.28 0 -0.46 0.14 -0.62 0.44 c-0.46 1.1 -3.68 8.26 -4.16 9.14 c-0.18 0.34 -0.34 0.56 -0.34 0.92 l0 1.46 c0 0.26 -0.02 0.44 0.42 0.44 l3.8 -0.02 c0.5 0 0.5 0.1 0.5 0.38 c0 0.3 -0.04 1.68 -0.04 1.82 c0 0.2 0.04 0.4 0.42 0.4 l1.74 0 c0.42 0 0.42 -0.24 0.42 -0.7 c0.02 -0.4 -0.02 -1.2 -0.02 -1.6 c0 -0.32 0.06 -0.34 0.6 -0.34 c0.42 0 0.6 -0.04 0.6 -0.3 c0.02 -0.54 0 -0.92 0 -1.52 c0 -0.36 -0.32 -0.34 -1 -0.34 c-0.22 0 -0.24 -0.06 -0.24 -0.36 c-0.04 -0.62 -0.08 -1.58 -0.08 -2.2 z M139.382 10.58 c-0.02 0.24 -0.04 3.72 -0.04 4.22 c-0.02 0.28 -0.08 0.36 -0.34 0.38 c-0.66 0.02 -1.32 0.02 -1.98 0.02 c-0.16 0 -0.22 -0.14 -0.14 -0.3 c0.08 -0.14 1.66 -3.98 2.1 -4.98 c0.06 -0.06 0.08 -0.12 0.14 -0.18 c0.06 -0.04 0.14 -0.06 0.2 -0.08 c0.02 0 0.08 0.1 0.08 0.16 c0 0.26 -0.02 0.52 -0.02 0.76 z"></path></g>
			</g>
		</svg>
	